<svg id="svg" version="1.1" width="400" height="207.06401766004416" viewBox="0 0 400 207.06401766004416" xmlns="http://www.w3.org/2000/svg" xmlns:xlink="http://www.w3.org/1999/xlink" ><g id="svgg"><path id="path0" d="M26.880 65.245 C 25.748 65.596,24.886 66.305,24.406 67.279 L 23.925 68.255 23.925 83.273 C 23.925 100.061,23.882 99.542,25.384 100.861 C 26.526 101.863,29.039 102.014,30.207 101.150 C 31.741 100.016,32.104 98.195,32.106 91.626 L 32.108 86.824 36.406 86.758 C 41.990 86.671,43.167 86.172,43.635 83.695 C 44.242 80.484,42.235 79.337,36.006 79.337 L 32.108 79.337 32.108 76.043 L 32.108 72.749 36.613 72.654 C 43.160 72.516,44.433 71.906,44.433 68.906 C 44.433 67.034,44.089 66.439,42.558 65.665 L 41.533 65.148 34.490 65.108 C 30.616 65.087,27.192 65.148,26.880 65.245 M51.530 65.332 C 48.636 66.391,48.783 65.418,48.783 83.480 L 48.783 98.705 49.315 99.741 C 50.707 102.451,54.731 102.454,56.125 99.747 C 56.650 98.726,56.655 98.672,56.718 92.963 C 56.785 86.913,56.803 86.811,57.589 87.882 C 60.493 91.837,67.817 100.687,68.634 101.229 C 71.817 103.337,75.650 100.667,74.578 97.088 C 74.159 95.688,73.159 94.349,69.446 90.212 C 66.714 87.169,65.991 86.248,66.255 86.152 C 66.444 86.083,67.110 85.863,67.737 85.663 C 72.741 84.067,75.383 79.094,74.163 73.565 C 73.310 69.699,70.289 66.805,65.769 65.525 C 64.067 65.043,52.739 64.889,51.530 65.332 M81.997 65.241 C 80.817 65.608,80.142 66.191,79.587 67.321 L 79.026 68.462 79.026 83.376 L 79.026 98.291 79.523 99.300 C 80.418 101.117,80.711 101.180,88.719 101.256 C 98.406 101.348,99.933 100.831,99.933 97.462 C 99.933 94.469,97.985 93.635,90.989 93.632 L 87.209 93.630 87.209 90.227 L 87.209 86.824 91.507 86.758 C 97.427 86.666,98.698 86.013,98.698 83.066 C 98.698 80.119,97.427 79.466,91.507 79.374 L 87.209 79.307 87.209 76.028 L 87.209 72.749 91.714 72.654 C 94.414 72.597,96.541 72.458,97.023 72.306 C 100.246 71.290,100.649 67.156,97.669 65.665 L 96.634 65.148 89.591 65.108 C 85.717 65.087,82.300 65.147,81.997 65.241 M107.459 65.339 C 104.570 66.370,104.713 65.437,104.713 83.376 C 104.713 100.765,104.596 99.683,106.577 100.673 L 107.613 101.191 115.070 101.191 L 122.527 101.191 123.552 100.673 C 124.897 99.994,125.369 99.312,125.488 97.874 C 125.766 94.517,123.911 93.635,116.567 93.632 L 112.677 93.630 112.734 90.264 L 112.791 86.898 117.141 86.794 C 123.122 86.652,124.410 85.983,124.370 83.038 C 124.330 80.106,123.107 79.479,117.148 79.337 L 112.791 79.234 112.791 76.023 L 112.791 72.812 117.349 72.688 C 120.929 72.591,122.115 72.487,122.883 72.205 C 126.297 70.949,126.105 66.406,122.595 65.363 C 121.132 64.929,108.664 64.909,107.459 65.339 M63.727 73.242 C 65.374 74.086,65.932 75.129,65.834 77.181 C 65.685 80.308,64.288 81.266,59.710 81.376 L 56.758 81.447 56.758 77.112 C 56.758 74.728,56.828 72.705,56.914 72.617 C 57.361 72.154,62.530 72.629,63.727 73.242 M144.879 117.991 C 142.259 118.798,140.540 121.154,139.928 124.781 C 139.455 127.576,139.462 182.791,139.935 185.524 C 140.696 189.922,142.834 192.233,146.454 192.571 C 150.377 192.937,153.087 190.926,154.168 186.846 L 154.635 185.085 154.635 155.153 C 154.635 122.208,154.700 123.969,153.388 121.379 C 151.858 118.361,148.291 116.940,144.879 117.991 M315.681 117.929 C 311.163 119.206,310.300 121.746,310.156 134.179 C 310.101 138.879,309.984 142.724,309.896 142.724 C 309.807 142.724,309.618 142.583,309.475 142.411 C 307.683 140.252,301.437 138.376,296.953 138.651 C 276.413 139.907,267.177 168.436,281.900 185.145 C 289.466 193.731,301.597 195.420,309.238 188.951 C 309.960 188.339,310.618 187.918,310.699 188.015 C 310.779 188.113,311.245 188.725,311.735 189.377 C 315.550 194.457,322.782 193.405,324.604 187.504 C 325.419 184.866,325.453 183.396,325.379 153.806 C 325.300 122.244,325.381 124.156,323.997 121.438 C 322.473 118.443,319.020 116.986,315.681 117.929 M108.234 120.979 C 87.167 123.368,74.585 143.527,79.358 167.246 C 82.973 185.209,97.858 195.763,116.650 193.688 C 129.842 192.232,137.769 183.668,131.816 177.304 C 129.414 174.736,127.930 174.599,122.527 176.447 C 115.386 178.890,112.371 179.215,107.808 178.032 C 99.503 175.880,94.471 166.524,95.486 155.117 C 96.804 140.295,105.508 133.757,119.109 137.373 C 127.059 139.487,128.048 139.469,130.467 137.173 C 138.758 129.300,124.761 119.106,108.234 120.979 M183.622 139.111 C 169.282 141.522,160.449 155.593,163.150 171.724 C 165.062 183.139,173.396 191.569,184.360 193.178 C 199.400 195.384,212.090 185.706,213.994 170.575 C 216.501 150.662,202.317 135.968,183.622 139.111 M227.234 139.679 C 224.428 140.313,222.789 142.123,221.904 145.568 C 221.349 147.727,221.358 174.004,221.914 176.800 C 224.105 187.805,231.827 193.475,244.621 193.475 C 258.497 193.475,266.349 186.603,267.440 173.503 C 267.873 168.304,267.590 147.513,267.061 145.589 C 266.005 141.754,264.516 140.174,261.438 139.619 C 257.982 138.996,254.784 140.563,253.527 143.497 C 252.480 145.939,252.462 146.180,252.307 159.606 C 252.152 173.080,252.111 173.603,251.064 175.655 C 248.882 179.932,240.963 180.355,238.340 176.335 C 236.798 173.972,236.563 171.646,236.554 158.680 C 236.546 147.321,236.467 146.179,235.515 143.663 C 234.329 140.526,230.865 138.860,227.234 139.679 M304.337 153.655 C 310.952 156.912,312.544 169.584,307.095 175.605 C 304.792 178.151,301.196 179.193,297.963 178.253 C 287.933 175.338,287.790 156.452,297.773 153.154 C 299.398 152.617,302.747 152.873,304.337 153.655 M191.760 153.656 C 200.462 157.006,201.037 173.773,192.592 177.930 C 185.032 181.652,177.618 174.657,178.442 164.578 C 179.129 156.172,185.251 151.151,191.760 153.656 " stroke="none" fill="#fefefe" fill-rule="evenodd"></path><path id="path1" d="M44.699 68.357 C 45.171 71.570,43.405 72.550,36.872 72.703 L 32.211 72.812 32.154 75.971 C 32.099 79.024,32.111 79.130,32.517 79.130 C 32.917 79.130,32.936 79.003,32.936 76.437 L 32.936 73.744 37.069 73.744 C 44.380 73.744,46.772 72.172,45.185 68.410 C 44.829 67.567,44.579 67.540,44.699 68.357 M99.852 68.728 C 99.826 71.876,98.084 72.708,91.521 72.708 L 87.209 72.708 87.209 75.919 C 87.209 78.992,87.227 79.130,87.623 79.130 C 88.016 79.130,88.037 78.992,88.037 76.437 L 88.037 73.744 92.128 73.741 C 97.745 73.736,99.458 73.269,100.179 71.545 C 100.548 70.662,100.536 69.024,100.155 68.358 C 99.864 67.848,99.859 67.854,99.852 68.728 M125.526 68.824 C 125.506 71.837,123.640 72.708,117.207 72.708 L 112.895 72.708 112.895 75.919 C 112.895 78.606,112.945 79.130,113.199 79.130 C 113.448 79.130,113.515 78.648,113.562 76.489 L 113.620 73.848 118.281 73.741 C 124.999 73.588,126.874 72.430,125.951 69.003 C 125.675 67.977,125.532 67.917,125.526 68.824 M73.851 71.983 C 75.924 78.317,73.445 83.904,67.737 85.759 C 65.812 86.384,65.706 87.198,67.585 86.916 C 73.789 85.986,77.446 77.579,74.037 72.087 C 73.812 71.725,73.756 71.694,73.851 71.983 M56.965 77.054 C 56.965 81.119,56.992 81.434,57.328 81.369 C 57.655 81.307,57.696 80.929,57.747 77.522 L 57.803 73.744 60.543 73.753 C 62.387 73.759,63.554 73.860,64.112 74.061 C 65.148 74.434,65.152 74.434,64.824 74.040 C 64.051 73.108,62.975 72.824,59.917 72.745 L 56.965 72.670 56.965 77.054 M43.673 82.853 C 43.858 86.060,41.980 86.998,35.370 87.000 L 32.108 87.002 32.108 92.458 C 32.108 100.518,31.281 102.191,27.452 101.873 C 26.173 101.767,26.108 101.794,26.774 102.152 C 28.050 102.839,30.143 102.725,31.292 101.907 C 32.664 100.930,32.822 100.145,32.936 93.734 L 33.040 87.934 37.183 87.819 C 41.831 87.690,43.055 87.381,43.962 86.107 C 44.560 85.268,44.710 83.380,44.250 82.491 C 43.728 81.482,43.599 81.563,43.673 82.853 M98.834 82.875 C 98.864 86.029,97.431 86.804,91.300 86.951 L 87.209 87.050 87.209 90.340 C 87.209 93.492,87.226 93.630,87.623 93.630 C 88.018 93.630,88.037 93.492,88.037 90.730 L 88.037 87.830 91.611 87.827 C 96.527 87.822,97.934 87.458,99.107 85.885 C 99.663 85.140,99.703 83.006,99.175 82.253 C 98.826 81.756,98.824 81.761,98.834 82.875 M124.456 82.546 C 124.838 85.821,123.181 86.797,116.986 86.949 L 112.895 87.050 112.895 90.340 C 112.895 93.099,112.944 93.630,113.200 93.630 C 113.451 93.630,113.515 93.125,113.562 90.782 L 113.620 87.934 117.763 87.809 C 122.954 87.653,124.333 87.193,124.916 85.427 C 125.224 84.494,125.080 82.526,124.674 82.120 C 124.407 81.854,124.381 81.905,124.456 82.546 M56.911 92.829 C 56.776 100.606,55.972 102.177,52.281 101.871 C 50.976 101.763,50.944 101.791,51.838 102.255 C 54.064 103.410,56.666 102.151,57.420 99.554 C 57.840 98.105,57.780 88.144,57.348 87.711 C 57.030 87.392,56.999 87.752,56.911 92.829 M74.395 96.271 C 75.699 99.550,73.809 102.352,70.480 102.076 C 69.168 101.967,69.389 102.333,70.910 102.789 C 74.100 103.745,76.547 100.275,74.996 96.996 C 74.382 95.699,73.970 95.202,74.395 96.271 M99.948 97.558 C 99.948 99.769,98.874 100.820,96.120 101.304 C 94.289 101.627,82.387 101.484,81.512 101.130 L 80.891 100.878 81.376 101.291 C 82.288 102.066,83.222 102.146,90.583 102.082 L 97.670 102.020 98.705 101.502 C 100.243 100.732,100.728 99.886,100.633 98.136 C 100.519 96.068,99.948 95.585,99.948 97.558 M125.682 97.307 C 125.817 99.494,124.530 100.794,121.723 101.309 C 120.009 101.624,108.029 101.472,107.221 101.126 C 106.266 100.716,106.346 101.012,107.334 101.539 C 108.228 102.017,108.283 102.020,115.800 102.020 L 123.367 102.020 124.397 101.490 C 126.136 100.595,126.825 98.666,126.059 96.834 C 125.650 95.855,125.596 95.923,125.682 97.307 " stroke="none" fill="#0e5d7d" fill-rule="evenodd"></path><path id="path2" d="" stroke="none" fill="#0000ff" fill-rule="evenodd"></path><path id="path3" d="M118.591 1.561 C 117.680 2.303,116.142 3.533,115.173 4.295 C 114.205 5.057,112.796 6.197,112.042 6.828 C 111.289 7.459,110.140 8.395,109.491 8.907 C 106.231 11.480,104.516 12.833,103.327 13.772 C 101.698 15.059,97.724 18.274,95.823 19.843 C 95.035 20.493,94.056 21.248,93.648 21.520 C 93.239 21.791,92.579 22.321,92.180 22.698 C 91.781 23.074,90.741 23.924,89.868 24.586 C 87.668 26.254,76.999 34.803,75.608 36.012 C 74.982 36.556,74.143 37.228,73.744 37.505 C 73.345 37.781,72.507 38.428,71.882 38.942 C 71.256 39.455,70.603 39.986,70.432 40.122 C 70.260 40.257,69.570 40.809,68.900 41.347 L 67.680 42.327 53.675 41.247 C 45.971 40.653,39.296 40.082,38.840 39.978 C 38.384 39.873,37.172 39.736,36.147 39.672 C 35.122 39.609,33.863 39.510,33.351 39.454 C 30.251 39.113,0.341 36.876,0.239 36.978 C 0.036 37.181,0.571 37.424,3.936 38.653 C 5.702 39.299,7.333 39.941,7.561 40.080 C 7.789 40.220,9.560 40.918,11.497 41.632 C 13.433 42.347,15.857 43.286,16.882 43.720 C 17.908 44.155,20.052 44.992,21.647 45.582 C 23.242 46.172,24.801 46.785,25.112 46.945 C 25.894 47.347,32.777 49.919,33.074 49.921 C 33.207 49.922,33.347 49.996,33.385 50.085 C 33.423 50.175,34.899 50.795,36.665 51.463 C 38.431 52.131,40.435 52.901,41.119 53.173 C 41.802 53.446,43.154 53.985,44.122 54.371 C 45.091 54.758,46.815 55.409,47.954 55.818 C 49.094 56.228,50.261 56.693,50.548 56.851 C 50.835 57.010,52.746 57.768,54.795 58.535 C 60.002 60.486,60.003 60.487,56.235 60.488 C 51.653 60.490,49.211 60.983,47.568 62.237 C 46.755 62.858,46.605 62.908,46.377 62.633 C 45.984 62.160,44.276 61.350,42.824 60.948 C 40.834 60.397,27.393 60.415,25.591 60.971 C 21.831 62.131,19.718 64.835,19.251 69.082 C 18.666 74.404,19.223 100.466,19.922 100.466 C 20.016 100.466,20.094 100.629,20.095 100.829 C 20.109 103.317,24.338 106.266,27.895 106.266 C 33.739 106.266,36.391 102.949,36.607 95.369 L 36.714 91.618 38.813 91.490 C 40.653 91.378,41.814 91.167,43.416 90.655 C 43.842 90.518,43.852 90.580,43.985 94.507 C 44.275 103.062,47.103 106.665,53.193 106.236 C 54.310 106.158,54.335 106.307,53.339 107.120 C 53.111 107.307,52.505 107.996,51.993 108.652 C 51.481 109.308,50.678 110.287,50.210 110.827 C 49.466 111.684,47.324 114.808,45.739 117.349 C 40.318 126.033,37.021 139.199,37.594 149.871 C 38.036 158.086,39.197 163.413,42.155 170.792 C 43.086 173.115,46.353 179.277,46.822 179.596 C 46.906 179.653,47.255 180.175,47.597 180.757 C 50.304 185.359,56.831 192.162,62.094 195.868 C 62.976 196.488,63.792 197.073,63.907 197.166 C 64.466 197.617,66.626 198.921,67.773 199.500 C 68.480 199.857,69.303 200.330,69.603 200.552 C 70.175 200.974,75.635 203.315,76.601 203.552 C 76.909 203.627,77.209 203.758,77.266 203.843 C 77.546 204.262,84.087 205.892,87.562 206.410 C 92.623 207.164,93.419 207.168,221.543 207.099 C 339.733 207.035,347.424 207.009,349.663 206.671 C 354.394 205.956,360.091 204.610,361.160 203.955 C 361.388 203.816,362.308 203.444,363.204 203.130 C 364.847 202.554,368.063 201.051,370.171 199.875 C 372.075 198.812,374.138 197.556,374.388 197.308 C 374.518 197.179,375.271 196.639,376.061 196.110 C 386.804 188.910,396.114 174.584,398.740 161.211 C 400.802 150.712,399.911 136.307,396.783 129.574 C 396.624 129.230,396.174 128.110,395.784 127.084 C 395.074 125.218,393.599 121.997,393.365 121.802 C 393.296 121.745,392.799 120.864,392.260 119.843 C 391.070 117.592,387.752 112.873,386.064 111.031 C 383.636 108.380,381.432 106.204,379.700 104.745 C 378.731 103.930,377.846 103.158,377.732 103.031 C 377.618 102.904,376.639 102.205,375.557 101.477 C 374.474 100.750,373.542 100.103,373.485 100.039 C 373.195 99.713,369.560 97.697,366.338 96.075 C 365.083 95.443,360.184 93.630,359.731 93.630 C 359.567 93.630,359.403 93.541,359.365 93.432 C 359.212 92.993,353.019 91.673,348.524 91.120 C 341.379 90.241,328.709 91.433,324.334 93.396 C 323.853 93.612,322.937 93.938,322.299 94.121 C 320.936 94.511,316.290 96.448,316.119 96.697 C 316.055 96.792,315.396 97.159,314.656 97.513 C 313.915 97.867,312.632 98.541,311.804 99.010 C 310.758 99.602,310.276 99.781,310.222 99.594 C 310.179 99.447,310.036 98.674,309.904 97.877 C 309.772 97.079,309.491 95.867,309.279 95.184 C 309.068 94.500,308.503 92.683,308.024 91.144 C 305.929 84.415,300.912 76.464,295.808 71.783 C 295.183 71.210,294.391 70.467,294.047 70.133 C 290.639 66.819,283.280 62.540,278.172 60.902 C 276.648 60.414,275.122 59.895,274.780 59.750 C 270.927 58.111,259.925 57.582,253.511 58.727 C 252.563 58.896,251.460 59.089,251.062 59.156 L 250.337 59.277 249.783 56.787 C 249.478 55.418,249.093 53.989,248.927 53.612 C 248.761 53.234,248.234 51.761,247.757 50.337 C 246.889 47.749,244.357 42.447,242.850 40.062 C 241.593 38.073,239.560 35.163,239.021 34.581 C 238.750 34.289,238.163 33.590,237.715 33.028 C 235.916 30.765,230.728 25.864,228.422 24.249 C 227.764 23.788,227.033 23.231,226.798 23.012 C 226.265 22.515,222.176 20.093,221.871 20.093 C 221.748 20.093,221.647 20.007,221.647 19.901 C 221.647 19.695,218.549 18.136,216.679 17.401 C 216.054 17.155,215.075 16.741,214.504 16.480 C 212.604 15.612,207.304 14.158,204.247 13.666 C 203.392 13.528,202.087 13.282,201.346 13.119 C 198.400 12.472,187.811 12.559,185.500 13.251 C 185.158 13.353,183.946 13.594,182.807 13.787 C 179.092 14.415,175.217 15.506,172.807 16.602 C 172.092 16.927,171.445 17.193,171.369 17.193 C 171.075 17.193,166.200 19.561,165.614 19.989 C 165.272 20.239,164.376 20.781,163.623 21.194 C 160.823 22.730,155.195 27.223,152.679 29.929 C 152.046 30.611,151.287 31.403,150.993 31.690 C 150.168 32.496,146.639 37.054,145.857 38.325 C 145.472 38.950,144.815 39.974,144.396 40.601 C 143.339 42.182,140.336 48.371,139.823 50.026 C 139.682 50.482,139.497 50.931,139.411 51.025 C 139.274 51.174,137.378 50.683,134.707 49.806 C 130.216 48.330,119.946 48.403,114.966 49.946 C 107.122 52.376,103.040 54.553,97.870 59.067 L 96.206 60.520 89.532 60.555 C 85.862 60.574,82.859 60.520,82.859 60.434 C 82.859 60.347,82.717 59.332,82.543 58.177 L 82.228 56.077 83.110 54.708 C 83.596 53.956,84.128 53.200,84.293 53.030 C 84.458 52.859,85.186 51.806,85.911 50.690 C 86.635 49.574,87.374 48.491,87.552 48.283 C 87.927 47.846,90.504 44.126,92.517 41.119 C 93.279 39.979,94.005 38.954,94.130 38.840 C 94.254 38.726,94.922 37.794,95.613 36.769 C 99.434 31.101,100.551 29.478,100.885 29.104 C 101.089 28.876,101.913 27.711,102.717 26.515 C 103.520 25.318,104.788 23.478,105.533 22.425 C 106.278 21.372,106.888 20.434,106.888 20.340 C 106.888 20.245,107.201 19.817,107.583 19.387 C 107.965 18.957,108.501 18.235,108.774 17.781 C 109.047 17.328,109.978 15.962,110.843 14.745 C 111.708 13.528,112.895 11.833,113.481 10.979 C 114.067 10.124,115.248 8.400,116.106 7.147 C 116.965 5.893,118.358 3.889,119.203 2.693 C 121.360 -0.362,121.236 -0.590,118.591 1.561 M61.156 22.059 C 52.618 24.457,53.772 37.149,62.575 37.659 C 66.872 37.908,70.361 35.090,71.041 30.821 C 71.218 29.709,70.969 27.346,70.653 27.141 C 70.561 27.081,70.413 26.800,70.324 26.515 C 69.313 23.278,64.735 21.053,61.156 22.059 M41.847 65.375 C 43.009 65.720,44.329 66.800,44.329 67.405 C 44.329 67.588,44.458 67.737,44.615 67.737 C 45.455 67.737,45.764 70.829,45.024 71.828 C 43.834 73.434,42.546 73.744,37.069 73.744 L 32.936 73.744 32.936 76.423 C 32.936 79.036,32.925 79.103,32.470 79.191 C 32.214 79.240,33.782 79.293,35.954 79.309 C 40.857 79.344,43.294 80.013,43.294 81.323 C 43.294 81.484,43.388 81.616,43.504 81.616 C 43.952 81.616,44.535 82.964,44.536 84.001 C 44.538 86.889,43.012 87.683,37.183 87.830 L 33.040 87.934 32.936 93.734 C 32.822 100.145,32.664 100.930,31.292 101.907 C 30.143 102.725,28.050 102.839,26.774 102.152 C 26.121 101.801,26.152 101.789,27.602 101.827 C 28.314 101.846,28.571 101.826,28.172 101.784 C 26.530 101.608,26.058 101.452,25.384 100.861 C 23.882 99.542,23.925 100.061,23.925 83.273 L 23.925 68.255 24.406 67.279 C 24.887 66.302,25.758 65.588,26.880 65.250 C 28.025 64.906,40.620 65.010,41.847 65.375 M65.769 65.529 C 68.883 66.422,71.506 68.207,72.864 70.356 C 73.177 70.852,73.500 71.258,73.582 71.258 C 73.664 71.258,73.672 71.414,73.599 71.603 C 73.517 71.817,73.549 71.897,73.685 71.813 C 73.810 71.735,74.080 72.094,74.321 72.659 C 76.974 78.885,73.966 85.464,67.830 86.858 L 66.690 87.117 69.923 90.736 C 71.702 92.727,73.391 94.751,73.677 95.236 C 73.964 95.720,74.241 96.116,74.294 96.116 C 74.347 96.116,74.332 96.023,74.262 95.909 C 74.192 95.795,74.190 95.702,74.259 95.702 C 74.548 95.702,75.608 98.352,75.608 99.074 C 75.609 101.089,73.713 102.964,71.694 102.947 C 71.061 102.942,69.274 102.174,69.460 101.988 C 69.530 101.918,69.155 101.574,68.627 101.224 C 67.944 100.771,66.256 98.812,62.804 94.467 C 60.130 91.102,57.885 88.283,57.816 88.204 C 57.747 88.125,57.685 90.455,57.678 93.383 C 57.661 101.028,56.975 102.609,53.676 102.606 C 52.569 102.605,50.966 102.046,51.251 101.761 C 51.319 101.693,51.032 101.443,50.611 101.207 C 50.110 100.925,49.664 100.420,49.315 99.741 L 48.783 98.705 48.783 83.480 C 48.783 65.418,48.636 66.391,51.530 65.332 C 52.748 64.886,64.073 65.043,65.769 65.529 M97.669 65.665 C 99.045 66.354,99.628 67.252,99.670 68.752 L 99.703 69.912 99.825 68.881 C 99.982 67.571,100.466 68.362,100.466 69.928 C 100.466 72.976,98.805 73.736,92.128 73.741 L 88.037 73.744 88.037 76.423 C 88.037 79.036,88.026 79.103,87.571 79.191 C 87.315 79.240,88.883 79.293,91.055 79.309 C 96.470 79.348,97.812 79.782,98.498 81.719 C 98.659 82.175,98.795 82.364,98.800 82.139 C 98.825 80.985,99.527 82.804,99.531 84.034 C 99.538 86.976,97.773 87.821,91.611 87.827 L 88.037 87.830 88.037 90.730 L 88.037 93.630 91.403 93.632 C 96.438 93.634,98.512 94.106,99.375 95.445 C 99.576 95.757,99.924 96.164,100.147 96.350 C 101.474 97.453,100.607 100.551,98.705 101.502 L 97.670 102.020 90.583 102.082 C 83.015 102.148,82.160 102.065,81.277 101.182 C 81.002 100.907,80.603 100.589,80.388 100.474 C 80.174 100.360,79.780 99.822,79.513 99.278 L 79.026 98.291 79.026 83.376 L 79.026 68.462 79.587 67.321 C 80.142 66.191,80.817 65.608,81.997 65.241 C 82.300 65.147,85.717 65.087,89.591 65.108 L 96.634 65.148 97.669 65.665 M123.303 65.631 C 124.582 66.262,125.114 67.036,125.282 68.515 C 125.417 69.703,125.417 69.704,125.536 68.876 L 125.656 68.048 125.918 68.951 C 126.921 72.405,125.036 73.587,118.281 73.741 L 113.620 73.848 113.562 76.489 C 113.515 78.626,113.447 79.130,113.205 79.130 C 112.960 79.130,112.894 78.563,112.840 76.023 L 112.775 72.915 112.783 76.074 L 112.791 79.234 117.141 79.337 C 122.766 79.471,123.159 79.634,124.855 82.526 C 125.198 83.111,125.184 84.782,124.829 85.631 C 124.150 87.257,122.857 87.656,117.763 87.809 L 113.620 87.934 113.562 90.782 L 113.505 93.630 116.980 93.632 C 122.328 93.634,124.487 94.181,125.112 95.691 C 125.255 96.036,125.456 96.266,125.559 96.202 C 125.850 96.022,126.360 97.453,126.356 98.440 C 126.351 99.746,125.643 100.849,124.397 101.490 L 123.367 102.020 115.800 102.020 C 108.283 102.020,108.228 102.017,107.334 101.539 C 106.838 101.275,106.485 101.007,106.549 100.943 C 106.612 100.880,106.365 100.628,105.999 100.383 C 104.602 99.449,104.616 99.634,104.667 83.066 C 104.728 63.243,103.678 65.021,115.277 65.100 C 122.191 65.147,122.338 65.156,123.303 65.631 M44.596 68.876 C 44.597 69.446,44.638 69.654,44.685 69.339 C 44.733 69.025,44.731 68.559,44.682 68.304 C 44.633 68.049,44.594 68.307,44.596 68.876 M43.591 71.310 L 42.983 71.983 43.656 71.375 C 44.026 71.040,44.329 70.737,44.329 70.702 C 44.329 70.542,44.158 70.683,43.591 71.310 M98.692 71.310 L 98.084 71.983 98.757 71.375 C 99.385 70.808,99.526 70.637,99.366 70.637 C 99.330 70.637,99.027 70.940,98.692 71.310 M56.851 72.766 C 56.795 72.911,56.777 74.939,56.810 77.271 L 56.871 81.512 56.918 77.117 L 56.965 72.722 59.296 72.656 L 61.626 72.590 59.289 72.546 C 57.551 72.513,56.926 72.569,56.851 72.766 M57.751 77.596 L 57.690 81.449 60.176 81.375 C 64.200 81.256,65.672 80.191,65.837 77.280 C 66.003 74.334,65.108 73.744,60.472 73.744 L 57.812 73.744 57.751 77.596 M74.437 76.334 C 74.437 77.245,74.474 77.592,74.518 77.105 C 74.561 76.618,74.561 75.872,74.516 75.448 C 74.472 75.023,74.436 75.422,74.437 76.334 M71.763 83.325 L 71.155 83.998 71.828 83.390 C 72.456 82.822,72.597 82.651,72.436 82.651 C 72.401 82.651,72.098 82.954,71.763 83.325 M33.817 86.949 C 34.814 86.987,36.445 86.987,37.442 86.949 C 38.439 86.911,37.623 86.880,35.629 86.880 C 33.635 86.880,32.820 86.911,33.817 86.949 M88.918 86.949 C 89.915 86.987,91.546 86.987,92.543 86.949 C 93.540 86.911,92.724 86.880,90.730 86.880 C 88.736 86.880,87.921 86.911,88.918 86.949 M112.779 87.062 C 112.723 87.209,112.705 88.771,112.740 90.532 L 112.803 93.734 112.849 90.373 L 112.895 87.011 116.468 86.949 L 120.041 86.888 116.462 86.841 C 113.693 86.805,112.859 86.855,112.779 87.062 M56.806 92.232 L 56.854 97.255 56.913 92.326 C 56.957 88.711,57.036 87.435,57.208 87.542 C 57.353 87.631,57.387 87.595,57.296 87.448 C 56.846 86.721,56.761 87.551,56.806 92.232 M74.366 87.875 C 74.366 88.496,74.342 88.517,74.021 88.196 C 73.736 87.911,73.723 87.795,73.943 87.530 C 74.317 87.079,74.366 87.119,74.366 87.875 M125.568 97.394 C 125.548 97.926,125.477 98.531,125.412 98.740 C 125.300 99.096,125.307 99.097,125.526 98.755 C 125.655 98.555,125.726 97.949,125.683 97.409 L 125.605 96.427 125.568 97.394 M31.949 97.566 C 31.949 97.965,31.991 98.128,32.043 97.929 C 32.095 97.729,32.095 97.403,32.043 97.204 C 31.991 97.004,31.949 97.167,31.949 97.566 M99.637 98.966 C 99.637 99.090,99.384 99.502,99.075 99.881 C 98.613 100.447,98.598 100.496,98.991 100.158 C 99.549 99.676,99.930 99.032,99.758 98.860 C 99.692 98.794,99.637 98.841,99.637 98.966 M73.718 100.810 C 73.561 101.000,73.154 101.326,72.812 101.535 C 72.470 101.744,72.308 101.915,72.453 101.915 C 72.713 101.916,74.381 100.482,74.132 100.472 C 74.061 100.469,73.874 100.621,73.718 100.810 M86.238 101.450 C 88.039 101.484,90.929 101.484,92.659 101.450 C 94.390 101.415,92.916 101.387,89.384 101.387 C 85.852 101.387,84.436 101.415,86.238 101.450 M111.807 101.450 C 113.545 101.484,116.388 101.484,118.125 101.450 C 119.863 101.415,118.441 101.387,114.966 101.387 C 111.491 101.387,110.070 101.415,111.807 101.450 M52.153 101.859 C 52.525 101.905,53.084 101.904,53.396 101.857 C 53.707 101.810,53.402 101.772,52.719 101.773 C 52.035 101.774,51.781 101.813,52.153 101.859 M150.229 118.235 C 152.132 119.076,153.563 121.053,154.275 123.820 C 154.609 125.118,154.635 127.402,154.635 155.153 L 154.635 185.085 154.168 186.846 C 153.087 190.926,150.377 192.937,146.454 192.571 C 142.834 192.233,140.696 189.922,139.935 185.524 C 139.462 182.791,139.455 127.576,139.928 124.781 C 140.891 119.081,145.508 116.147,150.229 118.235 M320.766 118.256 C 322.750 119.136,324.180 121.071,324.955 123.923 C 325.385 125.506,325.639 180.752,325.233 184.284 C 324.765 188.343,323.567 190.611,321.277 191.772 C 317.938 193.465,314.077 192.496,311.735 189.377 C 311.245 188.725,310.779 188.113,310.699 188.015 C 310.618 187.918,309.960 188.339,309.238 188.951 C 302.754 194.440,292.492 194.113,285.081 188.181 C 266.491 173.301,274.467 140.026,296.953 138.651 C 301.437 138.376,307.683 140.252,309.475 142.411 C 309.618 142.583,309.807 142.724,309.896 142.724 C 309.984 142.724,310.101 138.879,310.156 134.179 C 310.275 123.832,310.555 122.177,312.568 119.885 C 314.430 117.764,318.042 117.047,320.766 118.256 M118.488 121.292 C 130.447 123.341,136.535 131.411,130.467 137.173 C 128.048 139.469,127.059 139.487,119.109 137.373 C 105.508 133.757,96.804 140.295,95.486 155.117 C 94.471 166.524,99.503 175.880,107.808 178.032 C 112.371 179.215,115.386 178.890,122.527 176.447 C 127.930 174.599,129.414 174.736,131.816 177.304 C 137.769 183.668,129.842 192.232,116.650 193.688 C 97.858 195.763,82.973 185.209,79.358 167.246 C 73.706 139.158,92.684 116.871,118.488 121.292 M192.710 139.012 C 207.110 141.174,216.030 154.401,213.994 170.575 C 210.518 198.193,172.489 202.069,164.105 175.660 C 157.561 155.048,172.452 135.970,192.710 139.012 M231.922 139.967 C 233.344 140.451,234.910 142.062,235.515 143.663 C 236.467 146.179,236.546 147.321,236.554 158.680 C 236.563 171.646,236.798 173.972,238.340 176.335 C 240.963 180.355,248.882 179.932,251.064 175.655 C 252.111 173.603,252.152 173.080,252.307 159.606 C 252.462 146.180,252.480 145.939,253.527 143.497 C 254.784 140.563,257.982 138.996,261.438 139.619 C 264.516 140.174,266.005 141.754,267.061 145.589 C 267.590 147.513,267.873 168.304,267.440 173.503 C 266.349 186.603,258.497 193.475,244.621 193.475 C 231.827 193.475,224.105 187.805,221.914 176.800 C 221.358 174.004,221.349 147.727,221.904 145.568 C 223.202 140.519,227.118 138.330,231.922 139.967 M297.773 153.154 C 287.790 156.452,287.933 175.338,297.963 178.253 C 303.148 179.761,308.179 176.458,309.836 170.458 C 310.360 168.565,310.348 162.862,309.818 160.953 C 308.142 154.924,302.829 151.483,297.773 153.154 M186.070 153.388 C 175.267 156.429,176.023 176.864,187.010 178.793 C 193.517 179.935,198.483 174.425,198.513 166.028 C 198.546 157.204,192.897 151.466,186.070 153.388 " stroke="none" fill="#00a0e3" fill-rule="evenodd"></path><path id="path4" d="" stroke="none" fill="#00ffff" fill-rule="evenodd"></path></g></svg>